<svg xmlns="http://www.w3.org/2000/svg" data-name="Layer 2" viewBox="0 0 1000 1000"><path fill="#73af3a" d="m56.51,840.11s-34.18-172.58-19.43-197.81c14.74-25.24,27.62,39.56,29.89,84.58,2.27,45.02,3.66,55.25,3.66,55.25,0,0,10.01-168.88,32.12-145.49,22.11,23.39-17.42,169.39-17.42,169.39l-28.82,34.07Z"/><path fill="#a8d636" d="m51.14,826.12s-44.23-112.46-32.84-136.21c11.39-23.75,36.19,86.07,36.19,86.07,0,0-2.01-139.83,16.75-135.74,18.76,4.09,10.05,136.42,10.05,136.42,0,0,26.8-88.67,40.88-71.62,14.07,17.05-32.84,111.46-32.84,111.46l-38.2,9.62Z"/><rect width="87.53" height="87.53" x="26.86" y="775.27" fill="#ebf5ff" rx="8.48" ry="8.48"/><rect width="385.45" height="493.46" x="122.65" y="91.76" fill="#121863"/><rect width="237.08" height="493.46" x="544.17" y="91.76" fill="#121863"/><rect width="385.45" height="34.32" x="122.65" y="91.76" fill="#cce6ff"/><rect width="237.08" height="34.32" x="544.17" y="91.76" fill="#cce6ff"/><ellipse cx="145.25" cy="107.8" fill="#467ee0" rx="6.72" ry="6.63"/><ellipse cx="170.69" cy="107.8" fill="#97bdff" rx="6.72" ry="6.63"/><ellipse cx="196.13" cy="107.8" fill="#97bdff" rx="6.72" ry="6.63"/><ellipse cx="569.58" cy="107.8" fill="#467ee0" rx="6.72" ry="6.63"/><ellipse cx="595.02" cy="107.8" fill="#97bdff" rx="6.72" ry="6.63"/><ellipse cx="620.46" cy="107.8" fill="#97bdff" rx="6.72" ry="6.63"/><rect width="57.59" height="4.82" x="145.25" y="147.58" fill="#83d3ff"/><rect width="89.44" height="4.82" x="145.25" y="192.49" fill="#a8d636"/><rect width="57.59" height="4.82" x="213.02" y="147.58" fill="#6b97ed"/><rect width="57.59" height="4.82" x="160.62" y="163.55" fill="#6b97ed"/><rect width="57.59" height="4.82" x="254.49" y="176.72" fill="#a8d636"/><rect width="38.67" height="4.82" x="180.16" y="176.72" fill="#6b97ed"/><rect width="20.35" height="4.82" x="225.13" y="176.72" fill="#83d3ff"/><rect width="20.35" height="4.82" x="244.31" y="192.49" fill="#83d3ff"/><rect width="57.59" height="4.82" x="280.79" y="147.58" fill="#83d3ff"/><g><rect width="33.67" height="4.82" x="351.04" y="147.58" fill="#6b97ed"/><rect width="52.29" height="4.82" x="351.04" y="192.49" fill="#6b97ed"/><rect width="33.67" height="4.82" x="390.66" y="147.58" fill="#6b97ed"/><rect width="33.67" height="4.82" x="360.02" y="163.55" fill="#6b97ed"/><rect width="33.67" height="4.82" x="414.9" y="176.72" fill="#6b97ed"/><rect width="22.61" height="4.82" x="371.45" y="176.72" fill="#6b97ed"/><rect width="11.9" height="4.82" x="397.74" y="176.72" fill="#6b97ed"/><rect width="11.9" height="4.82" x="408.96" y="192.49" fill="#6b97ed"/><rect width="33.67" height="4.82" x="430.28" y="147.58" fill="#6b97ed"/></g><g><rect width="33.67" height="4.82" x="351.04" y="225.21" fill="#83d3ff"/><rect width="52.29" height="4.82" x="351.04" y="270.12" fill="#6b97ed"/><rect width="33.67" height="4.82" x="390.66" y="225.21" fill="#83d3ff"/><rect width="33.67" height="4.82" x="360.02" y="241.19" fill="#6b97ed"/><rect width="33.67" height="4.82" x="414.9" y="254.35" fill="#6b97ed"/><rect width="22.61" height="4.82" x="371.45" y="254.35" fill="#6b97ed"/><rect width="11.9" height="4.82" x="397.74" y="254.35" fill="#83d3ff"/><rect width="11.9" height="4.82" x="408.96" y="270.12" fill="#a8d636"/><rect width="33.67" height="4.82" x="430.28" y="225.21" fill="#83d3ff"/></g><g><rect width="57.59" height="4.82" x="145.25" y="225.21" fill="#a8d636"/><rect width="89.44" height="4.82" x="145.25" y="270.12" fill="#6b97ed"/><rect width="57.59" height="4.82" x="213.02" y="225.21" fill="#83d3ff"/><rect width="57.59" height="4.82" x="160.62" y="241.19" fill="#a8d636"/><rect width="57.59" height="4.82" x="254.49" y="254.35" fill="#6b97ed"/><rect width="38.67" height="4.82" x="180.16" y="254.35" fill="#83d3ff"/><rect width="20.35" height="4.82" x="225.13" y="254.35" fill="#83d3ff"/><rect width="20.35" height="4.82" x="244.31" y="270.12" fill="#83d3ff"/><rect width="57.59" height="4.82" x="280.79" y="225.21" fill="#a8d636"/></g><g><rect width="57.59" height="4.82" x="145.25" y="302.85" fill="#83d3ff"/><rect width="89.44" height="4.82" x="145.25" y="347.75" fill="#a8d636"/><rect width="57.59" height="4.82" x="213.02" y="302.85" fill="#83d3ff"/><rect width="57.59" height="4.82" x="160.62" y="318.82" fill="#a8d636"/><rect width="57.59" height="4.82" x="254.49" y="331.98" fill="#6b97ed"/><rect width="38.67" height="4.82" x="180.16" y="331.98" fill="#a8d636"/><rect width="20.35" height="4.82" x="225.13" y="331.98" fill="#83d3ff"/><rect width="20.35" height="4.82" x="244.31" y="347.75" fill="#83d3ff"/><rect width="57.59" height="4.82" x="280.79" y="302.85" fill="#83d3ff"/></g><g><rect width="57.59" height="4.82" x="145.25" y="380.48" fill="#83d3ff"/><rect width="89.44" height="4.82" x="145.25" y="425.38" fill="#a8d636"/><rect width="57.59" height="4.82" x="213.02" y="380.48" fill="#83d3ff"/><rect width="57.59" height="4.82" x="160.62" y="396.45" fill="#6b97ed"/><rect width="57.59" height="4.82" x="254.49" y="409.61" fill="#a8d636"/><rect width="38.67" height="4.82" x="180.16" y="409.61" fill="#83d3ff"/><rect width="20.35" height="4.82" x="225.13" y="409.61" fill="#83d3ff"/><rect width="20.35" height="4.82" x="244.31" y="425.38" fill="#83d3ff"/><rect width="57.59" height="4.82" x="280.79" y="380.48" fill="#83d3ff"/></g><g><rect width="52.8" height="4.82" x="566.15" y="143.51" fill="#83d3ff"/><rect width="82" height="4.82" x="566.15" y="188.42" fill="#a8d636"/><rect width="52.8" height="4.82" x="628.28" y="143.51" fill="#6b97ed"/><rect width="52.8" height="4.82" x="580.24" y="159.49" fill="#6b97ed"/><rect width="52.8" height="4.82" x="666.3" y="172.65" fill="#a8d636"/><rect width="35.45" height="4.82" x="598.15" y="172.65" fill="#6b97ed"/><rect width="18.66" height="4.82" x="639.38" y="172.65" fill="#83d3ff"/><rect width="18.66" height="4.82" x="656.97" y="188.42" fill="#83d3ff"/><rect width="52.8" height="4.82" x="690.41" y="143.51" fill="#83d3ff"/></g><g><rect width="52.8" height="4.82" x="566.15" y="209.84" fill="#83d3ff"/><rect width="82" height="4.82" x="566.15" y="254.75" fill="#a8d636"/><rect width="52.8" height="4.82" x="628.28" y="209.84" fill="#6b97ed"/><rect width="52.8" height="4.82" x="580.24" y="225.82" fill="#6b97ed"/><rect width="52.8" height="4.82" x="666.3" y="238.98" fill="#a8d636"/><rect width="35.45" height="4.82" x="598.15" y="238.98" fill="#6b97ed"/><rect width="18.66" height="4.82" x="639.38" y="238.98" fill="#83d3ff"/><rect width="18.66" height="4.82" x="656.97" y="254.75" fill="#83d3ff"/><rect width="52.8" height="4.82" x="690.41" y="209.84" fill="#83d3ff"/></g><g><rect width="52.8" height="4.82" x="566.15" y="276.17" fill="#83d3ff"/><rect width="82" height="4.82" x="566.15" y="321.08" fill="#a8d636"/><rect width="52.8" height="4.82" x="628.28" y="276.17" fill="#6b97ed"/><rect width="52.8" height="4.82" x="580.24" y="292.15" fill="#6b97ed"/><rect width="52.8" height="4.82" x="666.3" y="305.31" fill="#a8d636"/><rect width="35.45" height="4.82" x="598.15" y="305.31" fill="#6b97ed"/><rect width="18.66" height="4.82" x="639.38" y="305.31" fill="#83d3ff"/><rect width="18.66" height="4.82" x="656.97" y="321.08" fill="#83d3ff"/><rect width="52.8" height="4.82" x="690.41" y="276.17" fill="#83d3ff"/></g><g><rect width="52.8" height="4.82" x="566.15" y="342.5" fill="#83d3ff"/><rect width="82" height="4.82" x="566.15" y="387.41" fill="#a8d636"/><rect width="52.8" height="4.82" x="628.28" y="342.5" fill="#6b97ed"/><rect width="52.8" height="4.82" x="580.24" y="358.48" fill="#6b97ed"/><rect width="52.8" height="4.82" x="666.3" y="371.64" fill="#a8d636"/><rect width="35.45" height="4.82" x="598.15" y="371.64" fill="#6b97ed"/><rect width="18.66" height="4.82" x="639.38" y="371.64" fill="#83d3ff"/><rect width="18.66" height="4.82" x="656.97" y="387.41" fill="#83d3ff"/><rect width="52.8" height="4.82" x="690.41" y="342.5" fill="#83d3ff"/></g><g><rect width="52.8" height="4.82" x="566.15" y="408.83" fill="#83d3ff"/><rect width="82" height="4.82" x="566.15" y="453.74" fill="#a8d636"/><rect width="52.8" height="4.82" x="628.28" y="408.83" fill="#6b97ed"/><rect width="52.8" height="4.82" x="580.24" y="424.81" fill="#6b97ed"/><rect width="52.8" height="4.82" x="666.3" y="437.97" fill="#a8d636"/><rect width="35.45" height="4.82" x="598.15" y="437.97" fill="#6b97ed"/><rect width="18.66" height="4.82" x="639.38" y="437.97" fill="#83d3ff"/><rect width="18.66" height="4.82" x="656.97" y="453.74" fill="#83d3ff"/><rect width="52.8" height="4.82" x="690.41" y="408.83" fill="#83d3ff"/></g><g><rect width="52.8" height="4.82" x="566.15" y="475.16" fill="#83d3ff"/><rect width="82" height="4.82" x="566.15" y="520.07" fill="#a8d636"/><rect width="52.8" height="4.82" x="628.28" y="475.16" fill="#6b97ed"/><rect width="52.8" height="4.82" x="580.24" y="491.14" fill="#6b97ed"/><rect width="52.8" height="4.82" x="666.3" y="504.3" fill="#a8d636"/><rect width="35.45" height="4.82" x="598.15" y="504.3" fill="#6b97ed"/><rect width="18.66" height="4.82" x="639.38" y="504.3" fill="#83d3ff"/><rect width="18.66" height="4.82" x="656.97" y="520.07" fill="#83d3ff"/><rect width="52.8" height="4.82" x="690.41" y="475.16" fill="#83d3ff"/></g><g><path fill="#467ee0" d="m723.23,516.93s-43.81-10.8-27.16-37.41c16.65-26.61,72.65-49.67,108.98-46.12,36.33,3.55,88.8,45.53,80.72,70.96-8.07,25.43-63.07,33.71-104.44,30.75-41.37-2.96-58.11-18.18-58.11-18.18Z"/><path fill="#2c46a3" d="m743.58,492.81s-27.55-6.52-17.11-22.87c10.44-16.35,45.62-30.62,68.46-28.52,22.84,2.09,55.87,27.71,50.83,43.31-5.05,15.61-39.61,20.81-65.62,19.09s-36.55-11.01-36.55-11.01Z"/><path fill="#ffc7d2" d="m722.15,540.63s17.74,48.73,65.73,50.22c47.98,1.52,56.83-90.84,56.83-90.84,0,0-21.73-19.55-27.31-43.74-1.38-6-1.78-12.59-1.62-19.09.52-19.68,6.37-38.59,6.37-38.59l-69.52,10.87s.33,2.48,3.31,44.54c.71,10.12-.86,20.38-3.7,30.15-8.89,30.78-30.1,56.48-30.1,56.48Z"/><path fill="#f47382" d="m752.25,484.15c5.6,11.16,11.14,21.38,13.52,23.24,5.66,4.41,26.14-14.55,40.02-41.96,4.02-7.96,7.35-18,10.01-28.25.52-19.68,6.37-38.59,6.37-38.59l-69.52,10.87s.33,2.48,3.31,44.54c.71,10.12-.86,20.38-3.7,30.15Z"/><path fill="#121863" d="m849.66,352.38c-.04,3.63-.27,7.09-.68,10.37-.83,6.79-2.42,12.85-4.52,18.25-11.85,30.75-39.91,40.28-39.91,40.28l-29.95-9.1-83.03-25.23s-4.03-5.66-8.13-14.81c-5.89-13.15-11.91-33.54-6.19-54.63,9.7-35.75,48.56-55.05,92.4-50.73,43.87,4.34,80.51,31.85,80.01,85.61Z"/><path fill="#2c46a3" d="m848.98,362.75c-.83,6.79-2.42,12.85-4.52,18.25-11.85,30.75-39.91,40.28-39.91,40.28l-29.95-9.1s.04-.08.06-.1c18.21-38.85,31.3-52,31.3-52,0,0,14.1-1.73,30.09.24,4.25.52,8.64,1.29,12.93,2.45Z"/><path fill="#ffc7d2" d="m702.93,467.12c14.18,23.24,25.86,24.83,38.21,24.14,12.33-.68,21.2-4.1,25.51-5.15h.02c13.9-6.34,28.16-14.94,34.25-22.48,9.22-11.36,17.46-38.19,18.26-40.88.04-.15.06-.21.06-.21,0,0,29.13,5.11,33.78-10.19,4.61-15.32-3.13-23.98-11.72-27.33-8.65-3.31-22.77-1.55-24.33,1.36-1.54,2.86-2.2,17.21-4.36,18.02-2.12.84-4.8,1.13-5.92-.38-.45-.6-.63-7.4-.73-15.68.21-3.95.09-8.59-.07-12.66,0-6.44.02-12.34.05-15.61,0,0-12.55,4.65-35.04-.28-22.49-4.93-38.01-12.62-38.01-12.62,0,0-34.67,9.39-49.33,3.07,0,0-.79,27.44.79,35.74,1.6,8.33,3.93,13.93,3.02,21.21-.29,2.26-.5,5.27-.47,8.92,0,0,0,.02,0,.08.11,1.64,2.26,28.42,16,50.93Z"/><path fill="#f47382" d="m832.8,417.7c-4.69.54-6.34-1.44-6.91-2.69-.86-1.87-.23-4.11,1.58-5.7l.52-.45c2.88-2.48,2.7-2.96,2.02-3.81-.51-.63-.83-.74-.87-.74-.22.03-.75.49-1.02,1.08-.66,1.4-.9,2.45-.91,2.46-.29,1.27-1.56,2.06-2.82,1.77-1.27-.29-2.06-1.54-1.78-2.81.03-.15.36-1.56,1.24-3.43.74-1.56,2.42-3.48,4.74-3.75h0c1.3-.15,3.24.16,5.1,2.48,3.82,4.78-.7,8.67-2.63,10.33l-.48.42c-.06.05-.11.1-.15.15.36.08,1.01.14,2.06-.01,2.04-.28,6.9-4.47,8.46-9.7,1.12-3.74.23-6.9-2.64-9.41-2.04-1.78-3.99-2.49-5.99-2.13-4.71.82-8.32,7.11-8.35,7.18-.63,1.14-2.07,1.55-3.21.92-1.14-.63-1.55-2.07-.92-3.21.19-.34,4.69-8.31,11.66-9.53,3.46-.6,6.77.48,9.9,3.22,4.26,3.72,5.7,8.8,4.06,14.31-2.02,6.76-8.18,12.45-12.33,13.02-.11.02-.23.03-.34.04Z"/><ellipse cx="751.48" cy="389.96" fill="#121863" rx="5.48" ry="8.34" transform="rotate(-11.64 751.244 389.864)"/><ellipse cx="704.28" cy="396.35" fill="#121863" rx="5.02" ry="7.41" transform="rotate(-11.65 704.41 396.426)"/><ellipse cx="748.52" cy="387.08" fill="#fff" rx="2.32" ry="3.66" transform="rotate(-11.62 748.665 387.121)"/><ellipse cx="701.16" cy="394.56" fill="#fff" rx="2.32" ry="3.66" transform="rotate(-11.62 701.333 394.618)"/><path fill="#f47382" d="m727.81,432.84c-3.28.38-9.84.57-13.18-3.36-4.58-5.38-.57-9.77,3.32-14.02l1.09-1.19c2.83-3.13,1-9.48.05-11.66-.52-1.19.03-2.58,1.22-3.1,1.19-.52,2.58.02,3.1,1.22.19.43,4.58,10.67-.87,16.71l-1.11,1.22c-4.47,4.89-4.86,5.83-3.2,7.78,2.13,2.51,8.48,1.91,10.52,1.51,1.24-.26,2.52.58,2.77,1.85.25,1.28-.57,2.52-1.85,2.77-.24.05-.91.17-1.86.28Z"/><path fill="#121863" d="m758.15,374.73c-.55.06-1.12-.06-1.61-.4-4.93-3.39-12.21-1.01-12.28-.99-1.22.41-2.57-.25-2.98-1.48-.41-1.23.24-2.57,1.47-2.98.39-.13,9.57-3.17,16.47,1.57,1.07.74,1.34,2.21.61,3.28-.4.58-1.02.93-1.67,1.01Z"/><path fill="#121863" d="m693.64,383.87c-.35.04-.71,0-1.07-.13-1.21-.44-1.85-1.77-1.42-2.99,1.13-3.22,5.7-8.9,14.89-7.37,1.28.21,2.15,1.43,1.94,2.71-.21,1.28-1.43,2.15-2.71,1.94-7.36-1.22-9.46,3.74-9.68,4.31-.32.86-1.1,1.43-1.95,1.52Z"/><path fill="#f47382" d="m729.24,457.87c9.84-5.13,18.48-12.23,25.5-20.82.85-1.04.34-2.77-.7-3.46-1.22-.81-2.6-.34-3.46.7-6.46,7.9-14.56,14.41-23.6,19.12-2.84,1.48-.6,5.94,2.26,4.45h0Z"/><path fill="#f47382" d="m741.01,460.97c1.36-.24,2.72-.48,4.08-.72.62-.11,1.24-.55,1.58-1.07s.52-1.27.36-1.87-.5-1.24-1.07-1.58-1.2-.48-1.87-.36c-1.36.24-2.72.48-4.08.72-.62.11-1.24.55-1.58,1.07s-.52,1.27-.36,1.87.5,1.24,1.07,1.58,1.2.48,1.87.36h0Z"/><path fill="#fff" d="m819.71,383.21l-41.85-4.63c-4.85-7.39-13.21-12.28-22.69-12.28-12.82,0-23.58,8.94-26.41,20.9-5.6-2.31-9.65-1.06-11.72.02-3.66-6.44-10.15-10.73-17.53-10.73-11.41,0-20.69,10.24-20.69,22.82s9.28,22.82,20.69,22.82,20.69-10.24,20.69-22.82c0-3.35-.66-6.53-1.84-9.4,1.51-.81,4.91-1.93,9.87.33-.12,1.05-.19,2.11-.19,3.19,0,14.96,12.17,27.14,27.14,27.14s27.14-12.17,27.14-27.14c0-4.16-.95-8.11-2.63-11.64l39.7,4.4c.06,0,.11,0,.17,0,.75,0,1.4-.57,1.49-1.33.09-.82-.5-1.56-1.33-1.66Zm-120.2,35.92c-9.75,0-17.69-8.89-17.69-19.82s7.93-19.82,17.69-19.82,17.69,8.89,17.69,19.82-7.93,19.82-17.69,19.82Zm55.66-1.56c-13.31,0-24.14-10.83-24.14-24.14s10.83-24.14,24.14-24.14,24.14,10.83,24.14,24.14-10.83,24.14-24.14,24.14Z"/><path fill="#ffc7d2" d="m419.54,814.14s-21.51-6.79-35.94-4.24-57.45,13.02-63.95,19.24c-6.51,6.23-5.09,10.97-5.09,10.97h117.44l-12.46-25.96Z"/><path fill="#467ee0" d="m729.26,489.28s6.76,1.24,12.45,1.24c8.5,0,13.44.04,18.53,3.43,5.09,3.4,54.34-27.64,64.95-21.27s9.76,17.03,9.76,17.03c0,0,90.64,23.27,103.33,45.26,12.69,21.99-4.01,220.88.24,252.29,4.24,31.41,10.19,95.93,10.19,99.33s-3.4,19.53-3.4,19.53h-320.92l5.96-125.65s-66.22,41.6-84.89,51.79c-18.68,10.19-118,7.85-118,7.85,0,0-22.07-30.77-17.83-35.02,4.24-4.24,123.1-54.33,123.1-58.58s82.35-116.73,97.63-159.18c15.28-42.45,40.32-80.65,53.06-82.77,12.73-2.12,45.84-15.28,45.84-15.28Z"/><g><path fill="#2c46a3" d="m665.43,562.65c-7.76,27.12-15.54,54.3-20.9,82.02-2.69,13.9-4.76,27.92-5.93,42.03-1.2,14.42-1.71,28.87-3.16,43.27-1.65,16.28-3.68,32.53-5.56,48.78-.22,1.91,2.78,1.9,3,0,1.67-14.45,3.42-28.89,4.99-43.35,1.56-14.4,2.3-28.83,3.32-43.27,1.99-28.1,7.52-55.71,14.51-82.96,3.93-15.32,8.28-30.52,12.63-45.73.53-1.86-2.36-2.65-2.89-.8h0Z"/><path fill="#2c46a3" d="m530.77,750.38c12.44,12.84,23.58,26.9,33.24,41.95,1.04,1.62,3.64.12,2.59-1.51-9.79-15.26-21.09-29.53-33.71-42.56-1.35-1.39-3.47.73-2.12,2.12h0Z"/><path fill="#2c46a3" d="m530.22,750.22c9.98,7.43,19.95,14.85,29.93,22.28,1.55,1.15,3.05-1.45,1.51-2.59-9.98-7.43-19.95-14.85-29.93-22.28-1.55-1.15-3.05,1.45-1.51,2.59h0Z"/><path fill="#2c46a3" d="m553.52,752.46c2.33,1.91,4.67,3.82,7,5.73.61.5,1.54.64,2.12,0,.5-.55.65-1.59,0-2.12-2.33-1.91-4.67-3.82-7-5.73-.61-.5-1.54-.64-2.12,0-.5.55-.65,1.59,0,2.12h0Z"/><path fill="#2c46a3" d="m465.38,783.38c3.21,5.11,6.96,9.89,11.15,14.24,1.34,1.39,3.46-.73,2.12-2.12-4.03-4.17-7.6-8.72-10.69-13.63-1.02-1.63-3.62-.13-2.59,1.51h0Z"/><path fill="#2c46a3" d="m727.79,492.02c3.37,6.29,7.75,12.1,12.97,16.97,2.7,2.52,5.71,4.34,9.39,4.99s7.69.47,11.49-.14c7.8-1.24,15.36-4.09,22.87-6.45,7.75-2.42,15.49-4.85,23.24-7.27,8.69-2.72,17.39-5.44,26.08-8.16,1.84-.57,1.05-3.47-.8-2.89-15.02,4.7-30.03,9.4-45.05,14.1-7.3,2.29-14.59,4.84-22.01,6.71-6.67,1.68-15.26,3.08-21.18-1.38-3.01-2.27-5.61-5.25-7.96-8.17s-4.6-6.37-6.45-9.83c-.91-1.7-3.5-.19-2.59,1.51h0Z"/><path fill="#2c46a3" d="m817.01,498.6c-12.81,7.64-26.16,14.37-39.93,20.09-1.76.73-.99,3.63.8,2.89,14.02-5.82,27.61-12.62,40.65-20.4,1.66-.99.15-3.58-1.51-2.59h0Z"/><path fill="#2c46a3" d="m733.14,511.08c1.61,1.71,3.22,3.43,4.83,5.14.54.57,1.59.58,2.12,0,.56-.61.57-1.51,0-2.12-1.61-1.71-3.22-3.43-4.83-5.14-.54-.57-1.59-.58-2.12,0-.56.61-.57,1.51,0,2.12h0Z"/></g><g><path fill="#97bdff" d="m772.42,510.24c-.95,16.72-1.25,33.47-.87,50.21.38,16.82,1.43,33.63,3.16,50.37.96,9.36,2.14,18.7,3.52,28,.28,1.9,3.17,1.09,2.89-.8-2.44-16.51-4.21-33.12-5.33-49.78s-1.56-33.13-1.36-49.71c.12-9.44.45-18.87.98-28.3.11-1.93-2.89-1.92-3,0h0Z"/><path fill="#97bdff" d="m741.39,510.3c.93,4.14-.34,8.46-1.65,12.38s-2.92,7.41-4.79,10.92c-3.73,7.01-8.26,13.55-12.56,20.2-8.7,13.45-16.5,27.71-21.22,43.09-2.64,8.6-4.23,17.52-4.42,26.52-.04,1.93,2.96,1.93,3,0,.35-16.22,5.48-31.88,12.65-46.31,3.61-7.25,7.72-14.24,12.1-21.05s8.92-13.31,12.73-20.37c2.12-3.92,3.99-7.99,5.4-12.22,1.49-4.47,2.7-9.27,1.65-13.98-.42-1.88-3.31-1.09-2.89.8h0Z"/><circle cx="779.67" cy="645.06" r="12.1" fill="#fff"/><circle cx="698.25" cy="630.91" r="12.1" fill="#fff"/></g><path fill="#97bdff" d="m639.98,825.8c15.56-18.74,27.64-41.1,29.36-65.78.46-6.56.36-13.16,1.12-19.7.37-3.22,1-6.43,2.01-9.51.44-1.35.92-2.71,1.59-3.97.79-1.49,1.78-2.07,3.47-2.21,7.15-.57,14.34-.85,21.5-1.26s14.43-.82,21.64-1.21c28.86-1.56,57.74-2.84,86.64-3.28,3.29-.05,6.6-.21,9.88-.07,2.5.11,5.37.58,6.74,2.94.7,1.21.95,2.66,1.12,4.02.24,1.84.37,3.69.47,5.54.18,3.49.19,7,.18,10.49-.03,11.74.64,23.35,3.04,34.87,4.45,21.28,14.19,42.07,30.5,56.83,1.96,1.77,4,3.43,6.11,5.02,1.54,1.16,3.04-1.44,1.51-2.59-17.84-13.39-28.82-33.86-34.12-55.2-2.75-11.06-3.99-22.4-4.05-33.79-.04-7.12.23-14.28-.67-21.37-.36-2.84-1.08-5.7-3.43-7.55-2.09-1.65-4.81-2.1-7.41-2.21-3.37-.15-6.76.02-10.13.08-3.65.06-7.31.13-10.96.21-7.31.16-14.61.38-21.91.63-14.61.51-29.21,1.17-43.81,1.92-14.6.75-29.19,1.59-43.79,2.45-3.44.2-7.06.1-10.46.7-3.14.55-4.53,2.99-5.64,5.72-2.45,6.03-3.18,12.58-3.53,19.03s-.32,13.03-1.23,19.49c-.86,6.07-2.38,12.05-4.42,17.83-4.11,11.68-10.37,22.53-17.7,32.47-1.84,2.5-3.77,4.94-5.75,7.33-1.22,1.48.89,3.61,2.12,2.12h0Z"/><g><path fill="#ffc7d2" d="m728.55,807.63s-37.07-6.51-54.33-6.79-31.69,3.68-39.9,6.79c-8.21,3.11-47.82,25.47-49.8,30.56-1.98,5.09.28,17.26,3.68,19.53s67.35,10.75,76.12,9.62c8.77-1.13,62.54-6.51,65.37-21.22,2.83-14.71-1.13-38.49-1.13-38.49Z"/><path fill="#f47382" d="m688.37,824.89c4.23-.34-47.26,5.66-52.07,9.62-4.81,3.96,2.83,14.15,9.62,18.39,6.79,4.24,56.03,0,56.03,0,0,0-60.75,11.89-67.16,3.96-6.41-7.92-37.83-24.62,53.58-31.98Z"/><path fill="#6b97ed" d="m956.99,855.18c-26.11,13.37-195.47,5.09-216.48,5.09h-21.01s-5.1-64.31,3.18-64.94c8.27-.64,160.45-6.37,159.18-12.1-1.28-5.73-39.48-169.36-20.38-215.84,10.03-24.41,28.95-43.89,52.47-42.62,15.02.82,28.29,10.28,34.37,24.05.66,1.49,1.21,3.01,1.67,4.56,13.37,45.84,34.38,210.12,35.66,231.12,1.27,21.01-2.55,57.31-28.65,70.68Z"/><path fill="#2c46a3" d="m881.67,784.28c15.46,5.05,31.74,10.42,43.18,22.6,2.93,3.12,5.4,6.62,7.3,10.46.86,1.73,3.44.21,2.59-1.51-7.42-15.03-22.64-23.7-37.73-29.43-4.79-1.82-9.67-3.41-14.54-5-1.84-.6-2.63,2.3-.8,2.89h0Z"/><path fill="#2c46a3" d="m885.04,783.69c9.59-.97,19.22-1.55,28.86-1.73,1.93-.04,1.93-3.04,0-3-9.64.18-19.27.75-28.86,1.73-1.9.19-1.92,3.2,0,3h0Z"/><path fill="#2c46a3" d="m894.34,528.1c-4.09-.08-7.15,3-10.02,5.5-3.2,2.79-6.38,5.62-9.38,8.63-5.81,5.85-10.67,12.44-13.91,20.05-6.41,15.06-6.93,31.85-6.25,47.97.81,18.97,3.33,37.84,5.63,56.68,2.27,18.62,4.89,37.2,8.01,55.71s6.71,37.17,10.74,55.62c.5,2.29,1.01,4.57,1.52,6.85.42,1.88,3.32,1.09,2.89-.8-4.03-17.94-7.64-35.96-10.82-54.07-3.18-18.14-5.94-36.35-8.26-54.61s-4.75-36.64-6.11-55.04c-1.2-16.29-1.88-33.27,2.6-49.16,2.14-7.6,5.59-14.79,10.56-20.95s11.37-12.06,17.71-17.17c1.48-1.19,3.12-2.24,5.08-2.2s1.93-2.96,0-3h0Z"/><path fill="#2c46a3" d="m746.41,797.02c.7,9.89,1,19.8.89,29.71-.02,1.93,2.98,1.93,3,0,.1-9.91-.2-19.82-.89-29.71-.14-1.91-3.14-1.93-3,0h0Z"/><path fill="#2c46a3" d="m748.6,833.93c.64,4.22.89,8.49.81,12.76-.04,1.93,2.96,1.93,3,0,.09-4.54-.24-9.07-.92-13.56-.12-.8-1.13-1.24-1.85-1.05-.86.24-1.17,1.04-1.05,1.85h0Z"/></g><path fill="#97bdff" d="m1000,872.98v25.06c0,5.63-4.18,10.19-9.33,10.19H17.81c-4.34,0-7.87-4.56-7.87-10.19v-25.06c0-5.62,3.52-10.18,7.87-10.18h972.86c5.15,0,9.33,4.56,9.33,10.18Z"/><path fill="#cce6ff" d="m666.87,872.98v25.06c0,5.63-3.72,10.19-8.31,10.19H8.31c-4.59,0-8.31-4.56-8.31-10.19v-25.06c0-5.62,3.72-10.18,8.31-10.18h650.24c4.59,0,8.31,4.56,8.31,10.18Z"/><g><rect width="582.88" height="25.56" x="130.2" y="837.24" fill="#2c46a3" rx="6.81" ry="6.81"/><path fill="#97bdff" d="m610.5,755.26H161.4c-13.52,0-25.17-9.57-27.85-22.88l-62.35-309.63c-3.56-17.68,9.9-34.2,27.85-34.2h449.09c13.52,0,25.17,9.57,27.85,22.88l62.36,309.63c3.56,17.68-9.9,34.2-27.85,34.2Z"/><path fill="#cce6ff" d="m577.67,755.26H128.58c-13.52,0-25.17-9.57-27.85-22.88l-62.35-309.63c-3.56-17.68,9.9-34.2,27.85-34.2h449.09c13.52,0,25.17,9.57,27.85,22.88l62.36,309.63c3.56,17.68-9.9,34.2-27.85,34.2Z"/><rect width="180.51" height="26.37" x="222.67" y="589.62" fill="#6b97ed"/><path fill="#6b97ed" d="m373.97,615.99l-53.39,203.13c-2,7.61,3.36,15.18,11.18,15.77l163.44,12.45v15.45H226.9c-8.33,0-14.35-8.01-12.06-16.05l65.59-230.76h93.54Z"/><path fill="#97bdff" d="m354.77,615.99l-53.39,203.13c-2,7.61,3.36,15.18,11.18,15.77l163.44,12.45v15.45H207.7c-8.33,0-14.35-8.01-12.06-16.05l65.59-230.76h93.54Z"/></g></g><g><rect width="160.15" height="151.77" x="484.33" y="206.85" fill="#ffac27" rx="11.35" ry="11.35"/><path fill="#fff" d="m547.18,325.94c-11.19-3.14-16.78-10.37-16.78-21.68v-9.23c0-6.28-2.52-9.42-7.55-9.42v-10.58c5.04,0,7.55-3.15,7.55-9.46v-9.79c.09-5.59,1.55-10.12,4.36-13.57,2.81-3.45,6.95-5.95,12.42-7.51l2.94,8.21c-3.92,1.49-5.95,5.67-6.11,12.54v10.12c0,6.96-2.87,11.87-8.62,14.73,5.75,2.86,8.62,7.79,8.62,14.78v10.07c.16,6.87,2.19,11.05,6.11,12.54l-2.94,8.25Z"/><path fill="#fff" d="m577.67,317.69c3.92-1.49,5.95-5.67,6.11-12.54v-10.12c0-6.99,2.89-11.9,8.67-14.73-5.78-2.83-8.67-7.74-8.67-14.73v-10.12c-.16-6.87-2.19-11.05-6.11-12.54l2.94-8.21c5.56,1.55,9.74,4.1,12.54,7.62,2.8,3.53,4.21,8.15,4.24,13.87v9.37c0,6.31,2.52,9.46,7.55,9.46v10.58c-5.04,0-7.55,3.12-7.55,9.37v9.93c-.22,10.94-5.81,17.95-16.78,21.03l-2.94-8.25Z"/><g><rect width="93.34" height="88.46" x="367.39" y="263.44" fill="#a8d636" rx="11.35" ry="11.35"/><path fill="#fff" d="m389.58,306.9l12.83,4.32v7.2l-20.73-8.44v-6.24l20.73-8.44v7.18l-12.83,4.43Z"/><path fill="#fff" d="m410.01,324.11h-5.61l11.66-37.08h5.63l-11.68,37.08Z"/><path fill="#fff" d="m437.31,306.83l-12.76-4.34v-7.18l20.62,8.44v6.24l-20.62,8.44v-7.18l12.76-4.43Z"/></g></g><path fill="#cce6ff" d="m922.27,204.33l-15.44-4.28c.34-5.43-.27-10.96-1.9-16.35l13.97-7.59c.73-.4.84-1.4.18-1.92-1.34-1.06-3.41-3.13-5.66-7.06-2.24-3.92-2.97-6.74-3.18-8.41-.1-.82-1.04-1.26-1.77-.86l-13.92,7.56c-3.84-4.23-8.34-7.68-13.27-10.29l4.35-14.91c.23-.79-.43-1.57-1.27-1.48-1.71.18-4.69.13-9.12-1.1-4.43-1.23-6.99-2.72-8.35-3.75-.67-.5-1.65-.18-1.88.62l-4.34,14.86c-5.62-.33-11.34.28-16.91,1.89l-7.7-13.48c-.41-.72-1.45-.82-1.97-.18-1.08,1.31-3.22,3.33-7.24,5.51-4.03,2.19-6.92,2.89-8.63,3.1-.84.1-1.29,1.01-.88,1.73l7.7,13.48c-4.34,3.76-7.88,8.19-10.55,13.02l-15.25-4.23c-.82-.23-1.62.42-1.53,1.23.18,1.67.14,4.57-1.12,8.89-1.27,4.32-2.79,6.81-3.85,8.14-.52.65-.18,1.61.63,1.83l15.29,4.24c-.32,5.46.32,11.01,1.99,16.42l-13.92,7.56c-.73.4-.84,1.41-.18,1.92,1.34,1.06,3.42,3.14,5.66,7.06,2.24,3.92,2.97,6.74,3.18,8.41.1.82,1.04,1.26,1.77.86l13.97-7.59c3.84,4.19,8.35,7.6,13.26,10.18l-4.39,15.05c-.23.79.43,1.57,1.27,1.48,1.71-.18,4.69-.14,9.12,1.09,4.44,1.23,6.99,2.72,8.35,3.75.67.51,1.65.18,1.88-.61l4.4-15.08c5.56.31,11.21-.31,16.71-1.9l7.83,13.71c.41.72,1.44.82,1.97.18,1.08-1.31,3.22-3.33,7.24-5.51,4.03-2.19,6.91-2.9,8.63-3.1.83-.1,1.29-1.01.88-1.73l-7.83-13.71c4.29-3.72,7.8-8.08,10.46-12.85l15.47,4.29c.81.22,1.62-.42,1.53-1.24-.18-1.67-.14-4.57,1.12-8.89,1.27-4.32,2.79-6.81,3.85-8.14.52-.65.18-1.61-.63-1.83Zm-44.56-17.81c6.12,10.7,2.17,24.22-8.81,30.18-10.98,5.96-24.84,2.11-30.95-8.59-6.11-10.7-2.17-24.21,8.81-30.17,10.98-5.96,24.84-2.12,30.95,8.58Z"/><path fill="#cce6ff" d="m937.63,320.76l-9.14-2.54c.2-3.22-.16-6.49-1.12-9.69l8.27-4.49c.44-.24.5-.83.11-1.14-.79-.63-2.02-1.86-3.35-4.18-1.33-2.32-1.76-3.99-1.88-4.98-.06-.48-.61-.75-1.05-.51l-8.24,4.48c-2.27-2.5-4.94-4.55-7.86-6.1l2.58-8.83c.14-.47-.25-.93-.75-.88-1.01.11-2.78.08-5.4-.65-2.63-.73-4.14-1.61-4.94-2.22-.39-.3-.98-.11-1.11.37l-2.57,8.8c-3.33-.19-6.72.16-10.01,1.12l-4.56-7.98c-.24-.43-.86-.49-1.17-.11-.64.77-1.91,1.97-4.29,3.27-2.38,1.29-4.1,1.71-5.11,1.84-.5.06-.77.6-.52,1.03l4.56,7.98c-2.57,2.23-4.67,4.85-6.25,7.71l-9.03-2.51c-.48-.13-.96.25-.91.73.11.99.09,2.71-.66,5.27-.75,2.56-1.65,4.03-2.28,4.82-.31.38-.11.95.37,1.08l9.05,2.51c-.19,3.23.19,6.52,1.18,9.72l-8.24,4.48c-.44.24-.5.83-.11,1.14.79.63,2.02,1.86,3.35,4.18,1.33,2.32,1.76,3.99,1.88,4.98.06.49.61.75,1.05.51l8.27-4.49c2.28,2.48,4.94,4.5,7.86,6.03l-2.6,8.91c-.14.47.25.93.75.88,1.01-.11,2.78-.08,5.4.65,2.63.73,4.14,1.61,4.94,2.22.4.3.98.11,1.12-.36l2.61-8.93c3.29.18,6.64-.18,9.9-1.13l4.64,8.12c.24.43.86.48,1.17.11.64-.78,1.91-1.97,4.29-3.27,2.38-1.29,4.09-1.71,5.11-1.84.49-.06.77-.6.52-1.03l-4.64-8.12c2.54-2.2,4.62-4.79,6.19-7.61l9.16,2.54c.48.13.96-.25.9-.73-.11-.99-.08-2.71.66-5.26.75-2.56,1.65-4.03,2.28-4.82.31-.38.11-.95-.37-1.08Zm-26.39-10.55c3.62,6.34,1.29,14.34-5.22,17.87-6.5,3.53-14.71,1.25-18.33-5.09-3.62-6.34-1.29-14.34,5.22-17.87,6.5-3.53,14.71-1.25,18.33,5.08Z"/><path fill="#cce6ff" d="m114.64,336.54l-9.14-2.54c.2-3.22-.16-6.49-1.12-9.69l8.27-4.49c.44-.24.5-.83.11-1.14-.79-.63-2.02-1.86-3.35-4.18-1.33-2.32-1.76-3.99-1.88-4.98-.06-.48-.61-.75-1.05-.51l-8.24,4.48c-2.27-2.5-4.94-4.55-7.86-6.1l2.58-8.83c.14-.47-.25-.93-.75-.88-1.01.11-2.78.08-5.4-.65-2.63-.73-4.14-1.61-4.94-2.22-.39-.3-.98-.11-1.11.37l-2.57,8.8c-3.33-.19-6.72.16-10.01,1.12l-4.56-7.98c-.24-.43-.86-.49-1.17-.11-.64.77-1.91,1.97-4.29,3.27-2.38,1.29-4.1,1.71-5.11,1.84-.5.06-.77.6-.52,1.03l4.56,7.98c-2.57,2.23-4.67,4.85-6.25,7.71l-9.03-2.51c-.48-.13-.96.25-.91.73.11.99.09,2.71-.66,5.27-.75,2.56-1.65,4.03-2.28,4.82-.31.38-.11.95.37,1.08l9.05,2.51c-.19,3.23.19,6.52,1.18,9.72l-8.24,4.48c-.44.24-.5.83-.11,1.14.79.63,2.02,1.86,3.35,4.18,1.33,2.32,1.76,3.99,1.88,4.98.06.49.61.75,1.05.51l8.27-4.49c2.28,2.48,4.94,4.5,7.86,6.03l-2.6,8.91c-.14.47.25.93.75.88,1.01-.11,2.78-.08,5.4.65,2.63.73,4.14,1.61,4.94,2.22.4.3.98.11,1.12-.36l2.61-8.93c3.29.18,6.64-.18,9.9-1.13l4.64,8.12c.24.43.86.48,1.17.11.64-.78,1.91-1.97,4.29-3.27,2.38-1.29,4.09-1.71,5.11-1.84.49-.06.77-.6.52-1.03l-4.64-8.12c2.54-2.2,4.62-4.79,6.19-7.61l9.16,2.54c.48.13.96-.25.9-.73-.11-.99-.08-2.71.66-5.26.75-2.56,1.65-4.03,2.28-4.82.31-.38.11-.95-.37-1.08Zm-26.39-10.55c3.62,6.34,1.29,14.34-5.22,17.87-6.5,3.53-14.71,1.25-18.33-5.09-3.62-6.34-1.29-14.34,5.22-17.87,6.5-3.53,14.71-1.25,18.33,5.08Z"/><g><circle cx="135.12" cy="210.45" r="64.5" fill="#cce6ff"/><circle cx="135.12" cy="210.45" r="51.04" fill="#fff"/><path fill="#97bdff" d="m161.3,239.76c-.8,0-1.61-.31-2.22-.92l-27.1-27.1v-30.54c0-1.73,1.4-3.14,3.14-3.14s3.14,1.4,3.14,3.14v27.94l25.26,25.26c1.23,1.22,1.23,3.21,0,4.44-.61.61-1.42.92-2.22.92Z"/><circle cx="135.12" cy="210.45" r="8.32" fill="#97bdff"/></g></svg>
